<?xml version="1.0" encoding="utf-8"?>
<!-- Generator: Adobe Illustrator 25.0.0, SVG Export Plug-In . SVG Version: 6.00 Build 0)  -->
<svg version="1.1" id="Capa_1" xmlns="http://www.w3.org/2000/svg" xmlns:xlink="http://www.w3.org/1999/xlink" x="0px" y="0px"
	 viewBox="0 0 406.7 381.91" style="enable-background:new 0 0 406.7 381.91;" xml:space="preserve">
<style type="text/css">
	.st0{fill:#FFFFFF;}
</style>
<g>
	<path class="st0" d="M204.47,96.47c5.56-5.57,11.16-12.16,17.74-17.58c25.64-21.14,54.66-28.12,86.37-17
		c32.27,11.32,50.77,35.22,57.39,68.48c5.01,25.21-0.83,48.47-13.26,70.43c-14.5,25.62-34.4,46.7-56.15,66.16
		c-21.7,19.42-45.04,36.71-69.53,52.4c-14.69,9.41-30.06,9.9-44.78,0.5c-32.98-21.06-64.03-44.66-91.27-72.93
		c-17.05-17.69-32.42-36.71-41.88-59.66c-14.72-35.71-11.22-69.63,13.4-99.76c29.17-35.68,81.79-40.9,118.73-12.48
		C189.56,81.45,196.77,89.31,204.47,96.47z M59.37,148.02c-0.2,10.27,1.99,20.08,5.79,29.54c7.79,19.39,20.17,35.76,34.18,50.97
		c26.89,29.19,58.26,52.94,91.31,74.62c9.02,5.91,17.9,5.95,26.92,0.08c21.65-14.12,42.5-29.31,62.01-46.28
		c19.83-17.25,38.28-35.79,52.52-58.08c12.13-18.98,19.63-39.2,15.9-62.27c-4.31-26.67-18.12-46.43-43.57-56.27
		c-25.49-9.86-48.99-4.38-70.04,12.51c-8.96,7.19-15.79,16.22-21.79,25.94c-4.43,7.19-12.27,7.19-16.89,0.13
		c-0.75-1.15-1.45-2.33-2.19-3.48c-5.56-8.66-12.15-16.41-20.09-23.02c-25.8-21.47-61.64-22.48-87.27-2.06
		C67.73,105.04,60,124.95,59.37,148.02z"/>
</g>
</svg>
